<svg id="visual" viewBox="0 0 900 600" width="900" height="600" xmlns="http://www.w3.org/2000/svg" xmlns:xlink="http://www.w3.org/1999/xlink" version="1.1"><rect x="0" y="0" width="900" height="600" fill="#062727"></rect><defs><linearGradient id="grad1_0" x1="33.3%" y1="0%" x2="100%" y2="100%"><stop offset="20%" stop-color="#d7e26a" stop-opacity="1"></stop><stop offset="80%" stop-color="#d7e26a" stop-opacity="1"></stop></linearGradient></defs><defs><linearGradient id="grad1_1" x1="33.3%" y1="0%" x2="100%" y2="100%"><stop offset="20%" stop-color="#d7e26a" stop-opacity="1"></stop><stop offset="80%" stop-color="#91be65" stop-opacity="1"></stop></linearGradient></defs><defs><linearGradient id="grad1_2" x1="33.3%" y1="0%" x2="100%" y2="100%"><stop offset="20%" stop-color="#58985f" stop-opacity="1"></stop><stop offset="80%" stop-color="#91be65" stop-opacity="1"></stop></linearGradient></defs><defs><linearGradient id="grad1_3" x1="33.3%" y1="0%" x2="100%" y2="100%"><stop offset="20%" stop-color="#58985f" stop-opacity="1"></stop><stop offset="80%" stop-color="#2b7154" stop-opacity="1"></stop></linearGradient></defs><defs><linearGradient id="grad1_4" x1="33.3%" y1="0%" x2="100%" y2="100%"><stop offset="20%" stop-color="#0c4b41" stop-opacity="1"></stop><stop offset="80%" stop-color="#2b7154" stop-opacity="1"></stop></linearGradient></defs><defs><linearGradient id="grad1_5" x1="33.3%" y1="0%" x2="100%" y2="100%"><stop offset="20%" stop-color="#0c4b41" stop-opacity="1"></stop><stop offset="80%" stop-color="#062727" stop-opacity="1"></stop></linearGradient></defs><defs><linearGradient id="grad2_0" x1="0%" y1="0%" x2="66.7%" y2="100%"><stop offset="20%" stop-color="#d7e26a" stop-opacity="1"></stop><stop offset="80%" stop-color="#d7e26a" stop-opacity="1"></stop></linearGradient></defs><defs><linearGradient id="grad2_1" x1="0%" y1="0%" x2="66.7%" y2="100%"><stop offset="20%" stop-color="#91be65" stop-opacity="1"></stop><stop offset="80%" stop-color="#d7e26a" stop-opacity="1"></stop></linearGradient></defs><defs><linearGradient id="grad2_2" x1="0%" y1="0%" x2="66.7%" y2="100%"><stop offset="20%" stop-color="#91be65" stop-opacity="1"></stop><stop offset="80%" stop-color="#58985f" stop-opacity="1"></stop></linearGradient></defs><defs><linearGradient id="grad2_3" x1="0%" y1="0%" x2="66.7%" y2="100%"><stop offset="20%" stop-color="#2b7154" stop-opacity="1"></stop><stop offset="80%" stop-color="#58985f" stop-opacity="1"></stop></linearGradient></defs><defs><linearGradient id="grad2_4" x1="0%" y1="0%" x2="66.7%" y2="100%"><stop offset="20%" stop-color="#2b7154" stop-opacity="1"></stop><stop offset="80%" stop-color="#0c4b41" stop-opacity="1"></stop></linearGradient></defs><defs><linearGradient id="grad2_5" x1="0%" y1="0%" x2="66.7%" y2="100%"><stop offset="20%" stop-color="#062727" stop-opacity="1"></stop><stop offset="80%" stop-color="#0c4b41" stop-opacity="1"></stop></linearGradient></defs><g transform="translate(900, 0)"><path d="M0 297.5C-39.8 293.1 -79.7 288.8 -112.9 272.5C-146.1 256.3 -172.7 228.1 -200.8 200.8C-228.9 173.5 -258.5 147.2 -274.8 113.8C-291.2 80.5 -294.3 40.3 -297.5 0L0 0Z" fill="#073935"></path><path d="M0 247.9C-33.2 244.3 -66.4 240.7 -94.1 227.1C-121.8 213.6 -143.9 190.1 -167.3 167.3C-190.8 144.6 -215.4 122.6 -229 94.9C-242.6 67.1 -245.3 33.5 -247.9 0L0 0Z" fill="#195e4c"></path><path d="M0 198.3C-26.6 195.4 -53.1 192.5 -75.3 181.7C-97.4 170.9 -115.2 152.1 -133.9 133.9C-152.6 115.7 -172.3 98.1 -183.2 75.9C-194.1 53.7 -196.2 26.8 -198.3 0L0 0Z" fill="#40855b"></path><path d="M0 148.7C-19.9 146.6 -39.8 144.4 -56.4 136.3C-73.1 128.1 -86.4 114.1 -100.4 100.4C-114.5 86.8 -129.2 73.6 -137.4 56.9C-145.6 40.3 -147.2 20.1 -148.7 0L0 0Z" fill="#73ac62"></path><path d="M0 99.2C-13.3 97.7 -26.6 96.3 -37.6 90.8C-48.7 85.4 -57.6 76 -66.9 66.9C-76.3 57.8 -86.2 49.1 -91.6 37.9C-97.1 26.8 -98.1 13.4 -99.2 0L0 0Z" fill="#b3d167"></path><path d="M0 49.6C-6.6 48.9 -13.3 48.1 -18.8 45.4C-24.4 42.7 -28.8 38 -33.5 33.5C-38.2 28.9 -43.1 24.5 -45.8 19C-48.5 13.4 -49.1 6.7 -49.6 0L0 0Z" fill="#d7e26a"></path></g><g transform="translate(0, 600)"><path d="M0 -297.5C37 -291.2 74.1 -284.9 112.9 -272.5C151.7 -260.2 192.3 -241.8 210.3 -210.3C228.4 -178.9 223.9 -134.4 234.7 -97.2C245.4 -60 271.4 -30 297.5 0L0 0Z" fill="#073935"></path><path d="M0 -247.9C30.9 -242.6 61.7 -237.4 94.1 -227.1C126.4 -216.8 160.2 -201.5 175.3 -175.3C190.3 -149.1 186.6 -112 195.6 -81C204.5 -50 226.2 -25 247.9 0L0 0Z" fill="#195e4c"></path><path d="M0 -198.3C24.7 -194.1 49.4 -189.9 75.3 -181.7C101.1 -173.5 128.2 -161.2 140.2 -140.2C152.3 -119.3 149.3 -89.6 156.4 -64.8C163.6 -40 181 -20 198.3 0L0 0Z" fill="#40855b"></path><path d="M0 -148.7C18.5 -145.6 37 -142.4 56.4 -136.3C75.9 -130.1 96.1 -120.9 105.2 -105.2C114.2 -89.4 112 -67.2 117.3 -48.6C122.7 -30 135.7 -15 148.7 0L0 0Z" fill="#73ac62"></path><path d="M0 -99.2C12.3 -97.1 24.7 -95 37.6 -90.8C50.6 -86.7 64.1 -80.6 70.1 -70.1C76.1 -59.6 74.6 -44.8 78.2 -32.4C81.8 -20 90.5 -10 99.2 0L0 0Z" fill="#b3d167"></path><path d="M0 -49.6C6.2 -48.5 12.3 -47.5 18.8 -45.4C25.3 -43.4 32 -40.3 35.1 -35.1C38.1 -29.8 37.3 -22.4 39.1 -16.2C40.9 -10 45.2 -5 49.6 0L0 0Z" fill="#d7e26a"></path></g></svg>